<svg width="158" height="40" viewBox="0 0 158 40" fill="none" xmlns="http://www.w3.org/2000/svg">
<g clip-path="url(#clip0_1_10)">
<path d="M39.832 25.2515C38.0657 23.3549 35.4991 22.2143 32.184 21.8451C34.6827 19.2629 36.0564 16.0929 35.9896 12.9738C35.9824 12.6371 35.7102 12.3664 35.3737 12.361C32.261 12.3102 28.4256 13.6227 25.3017 15.7604C25.3019 15.7262 25.303 15.6918 25.303 15.6576C25.303 11.3026 23.5211 7.23534 20.4142 4.49861C20.1776 4.29018 19.8229 4.29018 19.5862 4.49861C16.4793 7.23526 14.6974 11.3026 14.6974 15.6575C14.6974 15.6879 14.6983 15.7182 14.6985 15.7486C11.6222 13.6171 7.79175 12.3104 4.62667 12.3609C4.28995 12.3664 4.01784 12.6371 4.01073 12.9737C3.94393 16.0929 5.31753 19.2628 7.81628 21.8449C4.50104 22.2141 1.93432 23.3549 0.167989 25.2516C-0.0559962 25.4921 -0.0559962 25.8648 0.167989 26.1053C2.65846 28.7794 6.35628 30.3132 10.3132 30.3132C11.6596 30.3132 12.9057 30.2078 14.0511 29.9996C14.0366 30.1186 14.0293 30.2371 14.0293 30.3549C14.0293 32.4673 16.1327 34.3882 19.8001 35.6248C19.865 35.6467 19.9326 35.6577 20.0001 35.6577C20.0677 35.6577 20.1354 35.6467 20.2002 35.6248C23.8676 34.3882 25.9709 32.4674 25.9709 30.3549C25.9709 30.2372 25.9631 30.1185 25.9486 29.9994C27.094 30.2076 28.3403 30.313 29.6868 30.313C33.6438 30.313 37.3417 28.7794 39.832 26.1051C40.056 25.8647 40.056 25.492 39.832 25.2515ZM25.2062 17.3763C28.0108 15.2235 31.7324 13.7659 34.7289 13.6236C34.5895 16.5409 33.0456 19.483 30.4233 21.7953C31.4679 20.2951 32.0191 18.6295 31.9818 16.9808C31.9742 16.6443 31.7019 16.3739 31.3652 16.3687C29.1783 16.3347 27.2459 16.6038 25.1366 17.9249C25.1633 17.7424 25.1859 17.5594 25.2062 17.3763ZM25.219 19.3775C27.1119 18.0191 28.7722 17.6541 30.7109 17.6212C30.5493 19.5647 29.4226 21.5165 27.5508 23.0582C26.1105 24.2444 24.3683 25.0724 22.551 25.4644C24.3239 24.0205 25.303 22.2308 25.303 20.334C25.3029 20.0117 25.2745 19.6925 25.219 19.3775ZM20.0001 5.82018C22.5809 8.30846 24.0503 11.8607 24.0503 15.6577C24.0503 16.0044 24.0373 16.3522 24.0119 16.6997C23.1545 15.5654 21.8901 14.5591 20.2782 13.7604C20.1029 13.6736 19.8972 13.6736 19.7221 13.7604C18.1101 14.5591 16.8458 15.5654 15.9883 16.6997C15.9629 16.3522 15.95 16.0044 15.95 15.6577C15.95 11.8607 17.4193 8.30846 20.0001 5.82018ZM20.0001 15.0246C22.5789 16.3816 24.0503 18.3043 24.0503 20.334C24.0503 22.3638 22.5789 24.2865 20.0001 25.6435C17.4214 24.2865 15.95 22.3638 15.95 20.334C15.95 18.3043 17.4214 16.3815 20.0001 15.0246ZM17.4504 25.4655C15.6329 25.0736 13.8898 24.2445 12.4494 23.0581C10.5772 21.5162 9.45043 19.5636 9.28933 17.6197C11.3337 17.6454 12.904 17.9968 14.7817 19.3751C14.7258 19.6908 14.6973 20.0108 14.6973 20.334C14.6974 22.2312 15.6769 24.0214 17.4504 25.4655ZM5.27128 13.6221C8.34941 13.7541 11.9998 15.1843 14.7938 17.374C14.8136 17.5533 14.8358 17.7324 14.8618 17.911C12.8014 16.5906 10.9674 16.3329 8.63504 16.3689C8.29839 16.374 8.02613 16.6443 8.01847 16.981C7.98121 18.6297 8.53238 20.2954 9.57707 21.7955C6.95417 19.4826 5.41011 16.54 5.27128 13.6221ZM10.3132 29.0607C6.92285 29.0606 3.75018 27.8366 1.50924 25.683C3.2487 24.0786 5.78081 23.1787 9.05527 22.9989C11.7218 25.238 15.0523 26.6211 18.4204 26.9151C16.4849 28.3395 13.7668 29.0607 10.3132 29.0607ZM20.0001 34.3691C17.0411 33.3327 15.2819 31.8399 15.2819 30.355C15.2819 30.1392 15.3229 29.9205 15.4065 29.6919C17.2526 29.1825 18.7883 28.3609 20.0001 27.2312C21.2114 28.3606 22.7467 29.182 24.5922 29.6914C24.6764 29.9215 24.7183 30.1401 24.7183 30.3551C24.7183 31.8399 22.9593 33.3327 20.0001 34.3691ZM29.6868 29.0604C26.2333 29.0604 23.5153 28.3392 21.5797 26.915C24.9478 26.6208 28.2787 25.2377 30.9451 22.9987C34.2193 23.1786 36.7513 24.0784 38.4908 25.6828C36.2499 27.8364 33.0773 29.0604 29.6868 29.0604Z" fill="black"/>
</g>
<path d="M54.968 22.848H59.364V24.5H52.7V22.988L57.068 16.38H52.7V14.728H59.364V16.24L54.968 22.848ZM68.2424 20.454C68.2424 20.734 68.2237 20.986 68.1864 21.21H62.5164C62.5631 21.77 62.7591 22.2087 63.1044 22.526C63.4497 22.8433 63.8744 23.002 64.3784 23.002C65.1064 23.002 65.6244 22.6893 65.9324 22.064H68.0464C67.8224 22.8107 67.3931 23.4267 66.7584 23.912C66.1237 24.388 65.3444 24.626 64.4204 24.626C63.6737 24.626 63.0017 24.4627 62.4044 24.136C61.8164 23.8 61.3544 23.3287 61.0184 22.722C60.6917 22.1153 60.5284 21.4153 60.5284 20.622C60.5284 19.8193 60.6917 19.1147 61.0184 18.508C61.3451 17.9013 61.8024 17.4347 62.3904 17.108C62.9784 16.7813 63.6551 16.618 64.4204 16.618C65.1577 16.618 65.8157 16.7767 66.3944 17.094C66.9824 17.4113 67.4351 17.864 67.7524 18.452C68.0791 19.0307 68.2424 19.698 68.2424 20.454ZM66.2124 19.894C66.2031 19.39 66.0211 18.9887 65.6664 18.69C65.3117 18.382 64.8777 18.228 64.3644 18.228C63.8791 18.228 63.4684 18.3773 63.1324 18.676C62.8057 18.9653 62.6051 19.3713 62.5304 19.894H66.2124ZM73.971 16.632C74.895 16.632 75.6417 16.926 76.211 17.514C76.7804 18.0927 77.065 18.9047 77.065 19.95V24.5H75.105V20.216C75.105 19.6 74.951 19.1287 74.643 18.802C74.335 18.466 73.915 18.298 73.383 18.298C72.8417 18.298 72.4124 18.466 72.095 18.802C71.787 19.1287 71.633 19.6 71.633 20.216V24.5H69.673V16.744H71.633V17.71C71.8944 17.374 72.2257 17.1127 72.627 16.926C73.0377 16.73 73.4857 16.632 73.971 16.632ZM84.9629 14.728V16.31H80.8889V18.816H84.0109V20.37H80.8889V24.5H78.9289V14.728H84.9629ZM88.3127 14.14V24.5H86.3527V14.14H88.3127ZM93.6932 24.626C92.9465 24.626 92.2745 24.4627 91.6772 24.136C91.0799 23.8 90.6085 23.3287 90.2632 22.722C89.9272 22.1153 89.7592 21.4153 89.7592 20.622C89.7592 19.8287 89.9319 19.1287 90.2772 18.522C90.6319 17.9153 91.1125 17.4487 91.7192 17.122C92.3259 16.786 93.0025 16.618 93.7492 16.618C94.4959 16.618 95.1725 16.786 95.7792 17.122C96.3859 17.4487 96.8619 17.9153 97.2072 18.522C97.5619 19.1287 97.7392 19.8287 97.7392 20.622C97.7392 21.4153 97.5572 22.1153 97.1932 22.722C96.8385 23.3287 96.3532 23.8 95.7372 24.136C95.1305 24.4627 94.4492 24.626 93.6932 24.626ZM93.6932 22.918C94.0479 22.918 94.3792 22.834 94.6872 22.666C95.0045 22.4887 95.2565 22.2273 95.4432 21.882C95.6299 21.5367 95.7232 21.1167 95.7232 20.622C95.7232 19.8847 95.5272 19.32 95.1352 18.928C94.7525 18.5267 94.2812 18.326 93.7212 18.326C93.1612 18.326 92.6899 18.5267 92.3072 18.928C91.9339 19.32 91.7472 19.8847 91.7472 20.622C91.7472 21.3593 91.9292 21.9287 92.2932 22.33C92.6665 22.722 93.1332 22.918 93.6932 22.918ZM109.929 16.744L107.661 24.5H105.547L104.133 19.082L102.719 24.5H100.591L98.3089 16.744H100.297L101.669 22.652L103.153 16.744H105.225L106.681 22.638L108.053 16.744H109.929ZM117.928 24.598C117.284 24.598 116.705 24.486 116.192 24.262C115.688 24.0287 115.291 23.7113 115.002 23.31C114.713 22.8993 114.563 22.428 114.554 21.896H115.912C115.959 22.3533 116.145 22.7407 116.472 23.058C116.808 23.366 117.293 23.52 117.928 23.52C118.535 23.52 119.011 23.3707 119.356 23.072C119.711 22.764 119.888 22.372 119.888 21.896C119.888 21.5227 119.785 21.2193 119.58 20.986C119.375 20.7527 119.118 20.5753 118.81 20.454C118.502 20.3327 118.087 20.202 117.564 20.062C116.92 19.894 116.402 19.726 116.01 19.558C115.627 19.39 115.296 19.1287 115.016 18.774C114.745 18.41 114.61 17.9247 114.61 17.318C114.61 16.786 114.745 16.3147 115.016 15.904C115.287 15.4933 115.665 15.176 116.15 14.952C116.645 14.728 117.209 14.616 117.844 14.616C118.759 14.616 119.505 14.8447 120.084 15.302C120.672 15.7593 121.003 16.366 121.078 17.122H119.678C119.631 16.7487 119.435 16.422 119.09 16.142C118.745 15.8527 118.287 15.708 117.718 15.708C117.186 15.708 116.752 15.848 116.416 16.128C116.08 16.3987 115.912 16.7813 115.912 17.276C115.912 17.6307 116.01 17.92 116.206 18.144C116.411 18.368 116.659 18.5407 116.948 18.662C117.247 18.774 117.662 18.9047 118.194 19.054C118.838 19.2313 119.356 19.4087 119.748 19.586C120.14 19.754 120.476 20.02 120.756 20.384C121.036 20.7387 121.176 21.224 121.176 21.84C121.176 22.316 121.05 22.764 120.798 23.184C120.546 23.604 120.173 23.9447 119.678 24.206C119.183 24.4673 118.6 24.598 117.928 24.598ZM124.605 17.878V22.4C124.605 22.7733 124.684 23.0393 124.843 23.198C125.001 23.3473 125.277 23.422 125.669 23.422H126.607V24.5H125.459C124.749 24.5 124.217 24.3367 123.863 24.01C123.508 23.6833 123.331 23.1467 123.331 22.4V17.878H122.337V16.828H123.331V14.896H124.605V16.828H126.607V17.878H124.605ZM134.954 16.828V24.5H133.68V23.366C133.438 23.758 133.097 24.066 132.658 24.29C132.229 24.5047 131.753 24.612 131.23 24.612C130.633 24.612 130.096 24.4907 129.62 24.248C129.144 23.996 128.766 23.6227 128.486 23.128C128.216 22.6333 128.08 22.0313 128.08 21.322V16.828H129.34V21.154C129.34 21.91 129.532 22.4933 129.914 22.904C130.297 23.3053 130.82 23.506 131.482 23.506C132.164 23.506 132.7 23.296 133.092 22.876C133.484 22.456 133.68 21.8447 133.68 21.042V16.828H134.954ZM136.629 20.636C136.629 19.852 136.788 19.166 137.105 18.578C137.423 17.9807 137.857 17.5187 138.407 17.192C138.967 16.8653 139.593 16.702 140.283 16.702C140.881 16.702 141.436 16.842 141.949 17.122C142.463 17.3927 142.855 17.752 143.125 18.2V14.14H144.413V24.5H143.125V23.058C142.873 23.5153 142.5 23.8933 142.005 24.192C141.511 24.4813 140.932 24.626 140.269 24.626C139.588 24.626 138.967 24.458 138.407 24.122C137.857 23.786 137.423 23.3147 137.105 22.708C136.788 22.1013 136.629 21.4107 136.629 20.636ZM143.125 20.65C143.125 20.0713 143.009 19.5673 142.775 19.138C142.542 18.7087 142.225 18.382 141.823 18.158C141.431 17.9247 140.997 17.808 140.521 17.808C140.045 17.808 139.611 17.92 139.219 18.144C138.827 18.368 138.515 18.6947 138.281 19.124C138.048 19.5533 137.931 20.0573 137.931 20.636C137.931 21.224 138.048 21.7373 138.281 22.176C138.515 22.6053 138.827 22.9367 139.219 23.17C139.611 23.394 140.045 23.506 140.521 23.506C140.997 23.506 141.431 23.394 141.823 23.17C142.225 22.9367 142.542 22.6053 142.775 22.176C143.009 21.7373 143.125 21.2287 143.125 20.65ZM147.224 15.582C146.982 15.582 146.776 15.498 146.608 15.33C146.44 15.162 146.356 14.9567 146.356 14.714C146.356 14.4713 146.44 14.266 146.608 14.098C146.776 13.93 146.982 13.846 147.224 13.846C147.458 13.846 147.654 13.93 147.812 14.098C147.98 14.266 148.064 14.4713 148.064 14.714C148.064 14.9567 147.98 15.162 147.812 15.33C147.654 15.498 147.458 15.582 147.224 15.582ZM147.84 16.828V24.5H146.566V16.828H147.84ZM153.358 24.626C152.639 24.626 151.986 24.4627 151.398 24.136C150.819 23.8093 150.362 23.3473 150.026 22.75C149.699 22.1433 149.536 21.4433 149.536 20.65C149.536 19.866 149.704 19.1753 150.04 18.578C150.385 17.9713 150.852 17.5093 151.44 17.192C152.028 16.8653 152.686 16.702 153.414 16.702C154.142 16.702 154.8 16.8653 155.388 17.192C155.976 17.5093 156.438 17.9667 156.774 18.564C157.119 19.1613 157.292 19.8567 157.292 20.65C157.292 21.4433 157.114 22.1433 156.76 22.75C156.414 23.3473 155.943 23.8093 155.346 24.136C154.748 24.4627 154.086 24.626 153.358 24.626ZM153.358 23.506C153.815 23.506 154.244 23.3987 154.646 23.184C155.047 22.9693 155.369 22.6473 155.612 22.218C155.864 21.7887 155.99 21.266 155.99 20.65C155.99 20.034 155.868 19.5113 155.626 19.082C155.383 18.6527 155.066 18.3353 154.674 18.13C154.282 17.9153 153.857 17.808 153.4 17.808C152.933 17.808 152.504 17.9153 152.112 18.13C151.729 18.3353 151.421 18.6527 151.188 19.082C150.954 19.5113 150.838 20.034 150.838 20.65C150.838 21.2753 150.95 21.8027 151.174 22.232C151.407 22.6613 151.715 22.9833 152.098 23.198C152.48 23.4033 152.9 23.506 153.358 23.506Z" fill="black"/>
<defs>
<clipPath id="clip0_1_10">
<rect width="40" height="40" fill="white"/>
</clipPath>
</defs>
</svg>
